<svg height="512" viewBox="0 0 54 58" width="512" xmlns="http://www.w3.org/2000/svg"><g id="Page-1" fill="none" fill-rule="evenodd"><g id="008---Girl-with-Pigtails" fill-rule="nonzero"><path id="Shape" d="m32 51h4c3.8659932 0 7 3.1340068 7 7h-32c0-3.8659932 3.1340068-7 7-7z" fill="#5d4c72"/><path id="Shape" d="m32 48.29v2.71c-.0049422 1.6548028-1.3451972 2.9950578-3 3h-4c-1.6548028-.0049422-2.9950578-1.3451972-3-3v-2.71z" fill="#f09372"/><path id="Shape" d="m48.03 32.64c2.78 1.88 5.97 5.88 5.97 14.36 0 0-10.01 2.15-14.31-3.24h-25.38c-4.3 5.39-14.31 3.24-14.31 3.24 0-8.48 3.19-12.48 5.97-14.36z" fill="#d25627"/><path id="Shape" d="m45 26h1.5c1.9291303.0093024 3.4906976 1.5708697 3.5 3.5 0 1.9329966-1.5670034 3.5-3.5 3.5h-39c-1.93299662 0-3.5-1.5670034-3.5-3.5.00930245-1.9291303 1.57086971-3.4906976 3.5-3.5z" fill="#f09372"/><path id="Shape" d="m47.96 18.82c-.96-18.82-20.96-18.82-20.96-18.82s-20 0-20.96 18.82c-.02.24-.04.49-.04.73v6.8c.46513006-.2340774.97930645-.3540519 1.5-.35h1.5v5c.00119722.668145.03791571 1.3357538.11 2 1.0124752 9.1161546 8.7177931 16.0130677 17.89 16.0130677s16.8775248-6.8969131 17.89-16.0130677c.0720843-.6642462.1088028-1.331855.11-2v-5h1.5c.5206936-.0040519 1.0348699.1159226 1.5.35v-6.8c0-.24-.02-.49-.04-.73z" fill="#f9c795"/><path id="Shape" d="m42 22.93v11.07c-.0041604 7.9833098-6.257423 14.5661541-14.23 14.98-.25.01-.51.02-.77.02h-.01c-.26 0-.51-.01-.76-.02-7.972577-.4138459-14.2258396-6.9966902-14.23-14.98v-11.27c3.41-.58 10-2.28 10-6.73 0 0 8.91 6.23 20 6.93z" fill="#fdd7ad"/><path id="Shape" d="m48 19.55v6.8c-.4651301-.2340774-.9793064-.3540519-1.5-.35h-1.5c-.7394134-.7724372-1.408713-1.6090617-2-2.5-.11-.16-.32-.53-.32-.53-11.4-.48-20.68-6.97-20.68-6.97 0 4.78-7.61 6.39-10.71 6.84l-2.29 3.16h-1.5c-.52069355-.0040519-1.03486994.1159226-1.5.35v-6.8c0-.24.02-.49.04-.73.96-18.82 20.96-18.82 20.96-18.82s20 0 20.96 18.82c.02.24.04.49.04.73z" fill="#d25627"/><path id="Shape" d="m29 35c-.262482-.0013707-.5139013-.1058893-.7-.291-.3510982-.3631033-.80462-.6104472-1.3-.709-.4954116.0990714-.9488791.3467344-1.3.71-.3931693.378225-1.016933.3715217-1.4018833-.0150654-.3849502-.3865872-.3890067-1.0103737-.0091167-1.4019346.7240342-.7356397 1.6836463-1.1933226 2.711-1.293 1.0259392.1005866 1.9839926.5582013 2.707 1.293.2859079.2859943.3714219.7160366.216678 1.0896546-.1547439.3736179-.5192821.6172591-.923678.6173454z" fill="#f09372"/><path id="Shape" d="m20 38h14c0 3.8659932-3.1340068 7-7 7s-7-3.1340068-7-7z" fill="#35495e"/><g fill="#f0785a"><circle id="Oval" cx="38" cy="36" r="1"/><circle id="Oval" cx="40" cy="38" r="1"/><circle id="Oval" cx="38" cy="40" r="1"/><circle id="Oval" cx="16" cy="36" r="1"/><circle id="Oval" cx="14" cy="38" r="1"/><circle id="Oval" cx="16" cy="40" r="1"/></g><circle id="Oval" cx="18.5" cy="29.5" fill="#fff" r="3.5"/><circle id="Oval" cx="18.5" cy="29.5" fill="#35495e" r="2.333"/><circle id="Oval" cx="17.833" cy="29.167" fill="#fff" r="1.167"/><path id="Shape" d="m14 30c-.3939748.0000617-.7512697-.2312053-.912539-.5906609s-.0964542-.7801017.165539-1.0743391c1.2744055-1.3406774 2.9959527-2.1678312 4.839-2.325 2.0881083-.0454482 4.1036534.7666245 5.577 2.247.2737297.2368481.3980971.6031305.3251711.957682-.072926.3545514-.3317594.6420151-.6767457.7516024-.3449863.1095874-.7222622.0241883-.9864254-.2232844-1.0859859-1.1128996-2.5760397-1.7390757-4.131-1.736-1.3109348.1297557-2.5343969.716706-3.456 1.658-.189092.2123664-.4596506.3341905-.744.335z" fill="#2c3e50"/><circle id="Oval" cx="35.5" cy="29.5" fill="#fff" r="3.5"/><circle id="Oval" cx="35.5" cy="29.5" fill="#35495e" r="2.333"/><circle id="Oval" cx="34.833" cy="29.167" fill="#fff" r="1.167"/><path id="Shape" d="m31 30c-.3939748.0000617-.7512697-.2312053-.912539-.5906609s-.0964542-.7801017.165539-1.0743391c1.2744055-1.3406774 2.9959527-2.1678312 4.839-2.325 2.0880868-.0453305 4.1035873.7667242 5.577 2.247.3974323.3723215.4238692.9942086.059469 1.3989162s-.985644.4434206-1.397469.0870838c-1.0860515-1.1128033-2.5760626-1.7389615-4.131-1.736-1.3109348.1297557-2.5343969.716706-3.456 1.658-.189092.2123664-.4596506.3341905-.744.335z" fill="#2c3e50"/></g></g></svg>